<svg xmlns="http://www.w3.org/2000/svg" xmlns:xlink="http://www.w3.org/1999/xlink" width="500" zoomAndPan="magnify" viewBox="0 0 375 374.999991" height="500" preserveAspectRatio="xMidYMid meet" version="1.0"><defs><clipPath id="88590e50dc"><path d="M 25.597656 25.597656 L 349.597656 25.597656 L 349.597656 349.597656 L 25.597656 349.597656 Z M 25.597656 25.597656 " clip-rule="nonzero"/></clipPath></defs><g clip-path="url(#88590e50dc)"><path fill="#ffffff" d="M 311.453125 83.128906 L 298.152344 160.34375 C 300.296875 169.074219 301.460938 178.199219 301.460938 187.597656 C 301.460938 250.480469 250.480469 301.460938 187.597656 301.460938 C 172.839844 301.460938 158.738281 298.625 145.800781 293.507812 L 160.777344 205.644531 L 208.414062 205.644531 L 196.082031 279.488281 L 249.398438 279.488281 L 287.238281 59.8125 C 280.152344 54.277344 272.589844 49.335938 264.632812 45.03125 L 264.636719 45.011719 C 264.476562 44.921875 264.316406 44.847656 264.15625 44.761719 C 264.046875 44.707031 263.933594 44.648438 263.824219 44.589844 C 262.042969 43.632812 260.234375 42.722656 258.414062 41.832031 C 258.078125 41.671875 257.746094 41.511719 257.414062 41.351562 C 253.496094 39.472656 249.488281 37.753906 245.398438 36.191406 C 245.113281 36.082031 244.828125 35.980469 244.542969 35.871094 C 242.582031 35.132812 240.609375 34.433594 238.613281 33.765625 C 238.542969 33.75 238.480469 33.714844 238.410156 33.695312 C 222.425781 28.425781 205.34375 25.5625 187.597656 25.5625 C 98.105469 25.5625 25.5625 98.105469 25.5625 187.597656 C 25.5625 228.984375 41.082031 266.742188 66.613281 295.382812 L 79.027344 221.957031 C 75.597656 211.113281 73.738281 199.574219 73.738281 187.597656 C 73.738281 124.714844 124.714844 73.738281 187.597656 73.738281 C 202.542969 73.738281 216.808594 76.632812 229.886719 81.871094 L 215.46875 163.414062 L 167.832031 163.414062 L 179.109375 95.902344 L 125.796875 95.902344 L 88.625 315.890625 C 96.464844 321.949219 104.894531 327.277344 113.78125 331.835938 L 113.777344 331.882812 C 117.175781 333.625 120.65625 335.234375 124.1875 336.742188 C 124.347656 336.804688 124.507812 336.875 124.667969 336.941406 C 128.804688 338.691406 133.03125 340.269531 137.339844 341.671875 C 137.421875 341.699219 137.5 341.730469 137.574219 341.753906 L 137.574219 341.75 C 153.335938 346.859375 170.140625 349.636719 187.597656 349.636719 C 277.089844 349.636719 349.636719 277.089844 349.636719 187.597656 C 349.636719 147.789062 335.273438 111.332031 311.453125 83.128906 " fill-opacity="1" fill-rule="nonzero"/></g></svg>